HIERARCHY
ROOT Hips
{
    OFFSET 0.000000 0.000000 0.000000
    CHANNELS 6 Xposition Yposition Zposition Zrotation Yrotation Xrotation
    JOINT Chest
    {
        OFFSET 0.000000 1.634758 -0.000000
        CHANNELS 3 Zrotation Yrotation Xrotation
        JOINT Chest2
        {
            OFFSET 0.000000 2.197341 0.000000
            CHANNELS 3 Zrotation Yrotation Xrotation
            JOINT Neck
            {
                OFFSET 0.000000 0.961544 0.000000
                CHANNELS 3 Zrotation Yrotation Xrotation
                JOINT Head
                {
                    OFFSET 0.000000 0.632542 -0.032565
                    CHANNELS 3 Zrotation Yrotation Xrotation
                    End Site
                    {
                        OFFSET -0.000001 0.439502 2.922845
                    }
                }
            }
            JOINT LeftCollar
            {
                OFFSET 0.167536 0.778237 -0.168280
                CHANNELS 3 Zrotation Yrotation Xrotation
                JOINT LeftShoulder
                {
                    OFFSET 0.831514 -0.002900 0.006458
                    CHANNELS 3 Zrotation Yrotation Xrotation
                    JOINT LeftElbow
                    {
                        OFFSET 2.272872 -0.026639 0.059314
                        CHANNELS 3 Zrotation Yrotation Xrotation
                        JOINT LeftWrist
                        {
                            OFFSET 2.081982 -0.024402 0.054333
                            CHANNELS 3 Zrotation Yrotation Xrotation
                            JOINT LeftHandThumb1
                            {
                                OFFSET 0.218903 -0.128645 0.283837
                                CHANNELS 3 Zrotation Yrotation Xrotation
                                JOINT LeftHandThumb2
                                {
                                    OFFSET 0.137157 -0.025101 0.077902
                                    CHANNELS 3 Zrotation Yrotation Xrotation
                                    JOINT LeftHandThumb3
                                    {
                                        OFFSET 0.165861 -0.067014 0.039226
                                        CHANNELS 3 Zrotation Yrotation Xrotation
                                        End Site
                                        {
                                            OFFSET 0.241157 -0.045065 0.107930
                                        }
                                    }
                                }
                            }
                            JOINT LeftHandFore1
                            {
                                OFFSET 0.767340 -0.016076 0.196678
                                CHANNELS 3 Zrotation Yrotation Xrotation
                                JOINT LeftHandFore2
                                {
                                    OFFSET 0.215173 -0.024035 0.010864
                                    CHANNELS 3 Zrotation Yrotation Xrotation
                                    JOINT LeftHandFore3
                                    {
                                        OFFSET 0.127998 -0.018363 0.006493
                                        CHANNELS 3 Zrotation Yrotation Xrotation
                                        End Site
                                        {
                                            OFFSET 0.191872 -0.022849 0.005461
                                        }
                                    }
                                }
                            }
                            JOINT LeftHandMiddle1
                            {
                                OFFSET 0.709887 -0.008320 0.018526
                                CHANNELS 3 Zrotation Yrotation Xrotation
                                JOINT LeftHandMiddle2
                                {
                                    OFFSET 0.243305 -0.028680 0.006624
                                    CHANNELS 3 Zrotation Yrotation Xrotation
                                    JOINT LeftHandMiddle3
                                    {
                                        OFFSET 0.145223 -0.016669 0.003951
                                        CHANNELS 3 Zrotation Yrotation Xrotation
                                        End Site
                                        {
                                            OFFSET 0.233621 -0.031666 0.006995
                                        }
                                    }
                                }
                            }
                            JOINT LeftHandRing1
                            {
                                OFFSET 0.743817 -0.005823 -0.153668
                                CHANNELS 3 Zrotation Yrotation Xrotation
                                JOINT LeftHandRing2
                                {
                                    OFFSET 0.349394 -0.050632 -0.009675
                                    CHANNELS 3 Zrotation Yrotation Xrotation
                                    JOINT LeftHandRing3
                                    {
                                        OFFSET 0.134332 -0.023631 0.001421
                                        CHANNELS 3 Zrotation Yrotation Xrotation
                                        End Site
                                        {
                                            OFFSET 0.116893 -0.027460 0.001278
                                        }
                                    }
                                }
                            }
                            JOINT LeftHandLittle1
                            {
                                OFFSET 0.689408 -0.053302 -0.308304
                                CHANNELS 3 Zrotation Yrotation Xrotation
                                JOINT LeftHandLittle2
                                {
                                    OFFSET 0.193251 -0.018757 -0.018874
                                    CHANNELS 3 Zrotation Yrotation Xrotation
                                    JOINT LeftHandLittle3
                                    {
                                        OFFSET 0.116994 -0.025997 -0.011519
                                        CHANNELS 3 Zrotation Yrotation Xrotation
                                        End Site
                                        {
                                            OFFSET 0.189726 -0.012367 -0.011818
                                        }
                                    }
                                }
                            }
                        }
                    }
                }
            }
            JOINT RightCollar
            {
                OFFSET -0.167536 0.778237 -0.168280
                CHANNELS 3 Zrotation Yrotation Xrotation
                JOINT RightShoulder
                {
                    OFFSET -0.831514 -0.002900 0.006457
                    CHANNELS 3 Zrotation Yrotation Xrotation
                    JOINT RightElbow
                    {
                        OFFSET -2.272872 -0.026639 0.059313
                        CHANNELS 3 Zrotation Yrotation Xrotation
                        JOINT RightWrist
                        {
                            OFFSET -2.081982 -0.024402 0.054331
                            CHANNELS 3 Zrotation Yrotation Xrotation
                            JOINT RightHandThumb1
                            {
                                OFFSET -0.218911 -0.128571 0.283837
                                CHANNELS 3 Zrotation Yrotation Xrotation
                                JOINT RightHandThumb2
                                {
                                    OFFSET -0.137157 -0.025101 0.077902
                                    CHANNELS 3 Zrotation Yrotation Xrotation
                                    JOINT RightHandThumb3
                                    {
                                        OFFSET -0.165861 -0.067014 0.039226
                                        CHANNELS 3 Zrotation Yrotation Xrotation
                                        End Site
                                        {
                                            OFFSET -0.229436 -0.065997 0.121819
                                        }
                                    }
                                }
                            }
                            JOINT RightHandFore1
                            {
                                OFFSET -0.767344 -0.015991 0.196679
                                CHANNELS 3 Zrotation Yrotation Xrotation
                                JOINT RightHandFore2
                                {
                                    OFFSET -0.215182 -0.023988 0.010864
                                    CHANNELS 3 Zrotation Yrotation Xrotation
                                    JOINT RightHandFore3
                                    {
                                        OFFSET -0.127999 -0.018333 0.006493
                                        CHANNELS 3 Zrotation Yrotation Xrotation
                                        End Site
                                        {
                                            OFFSET -0.191454 -0.022769 0.013914
                                        }
                                    }
                                }
                            }
                            JOINT RightHandMiddle1
                            {
                                OFFSET -0.709887 -0.008302 0.018525
                                CHANNELS 3 Zrotation Yrotation Xrotation
                                JOINT RightHandMiddle2
                                {
                                    OFFSET -0.243299 -0.028704 0.006624
                                    CHANNELS 3 Zrotation Yrotation Xrotation
                                    JOINT RightHandMiddle3
                                    {
                                        OFFSET -0.145226 -0.016685 0.003951
                                        CHANNELS 3 Zrotation Yrotation Xrotation
                                        End Site
                                        {
                                            OFFSET -0.233653 -0.031672 0.005780
                                        }
                                    }
                                }
                            }
                            JOINT RightHandRing1
                            {
                                OFFSET -0.743819 -0.005785 -0.153669
                                CHANNELS 3 Zrotation Yrotation Xrotation
                                JOINT RightHandRing2
                                {
                                    OFFSET -0.349398 -0.050607 -0.009675
                                    CHANNELS 3 Zrotation Yrotation Xrotation
                                    JOINT RightHandRing3
                                    {
                                        OFFSET -0.134041 -0.023657 -0.008853
                                        CHANNELS 3 Zrotation Yrotation Xrotation
                                        End Site
                                        {
                                            OFFSET -0.116640 -0.027483 -0.007747
                                        }
                                    }
                                }
                            }
                            JOINT RightHandLittle1
                            {
                                OFFSET -0.689403 -0.053298 -0.308303
                                CHANNELS 3 Zrotation Yrotation Xrotation
                                JOINT RightHandLittle2
                                {
                                    OFFSET -0.193254 -0.018752 -0.018875
                                    CHANNELS 3 Zrotation Yrotation Xrotation
                                    JOINT RightHandLittle3
                                    {
                                        OFFSET -0.116992 -0.025993 -0.011520
                                        CHANNELS 3 Zrotation Yrotation Xrotation
                                        End Site
                                        {
                                            OFFSET -0.188440 -0.012318 -0.025042
                                        }
                                    }
                                }
                            }
                        }
                    }
                }
            }
        }
    }
    JOINT LeftHip
    {
        OFFSET 0.685143 0.673822 -0.044491
        CHANNELS 3 Zrotation Yrotation Xrotation
        JOINT LeftKnee
        {
            OFFSET 0.085364 -3.750208 0.017676
            CHANNELS 3 Zrotation Yrotation Xrotation
            JOINT LeftAnkle
            {
                OFFSET 0.094583 -4.155206 0.019585
                CHANNELS 3 Zrotation Yrotation Xrotation
                JOINT LeftToe
                {
                    OFFSET -0.000000 -0.395925 0.621478
                    CHANNELS 3 Zrotation Yrotation Xrotation
                    End Site
                    {
                        OFFSET -0.000000 -0.077878 0.321152
                    }
                }
            }
        }
    }
    JOINT RightHip
    {
        OFFSET -0.685143 0.673822 -0.044492
        CHANNELS 3 Zrotation Yrotation Xrotation
        JOINT RightKnee
        {
            OFFSET -0.085364 -3.750208 0.017677
            CHANNELS 3 Zrotation Yrotation Xrotation
            JOINT RightAnkle
            {
                OFFSET -0.094583 -4.155206 0.019585
                CHANNELS 3 Zrotation Yrotation Xrotation
                JOINT RightToe
                {
                    OFFSET -0.000000 -0.395925 0.621478
                    CHANNELS 3 Zrotation Yrotation Xrotation
                    End Site
                    {
                        OFFSET -0.000000 -0.077878 0.321152
                    }
                }
            }
        }
    }
}
MOTION
Frames: 4
Frame Time: 0.033333
0.743588 9.901585 0.161583 179.999451 -64.171257 -157.654251 -5.909167 10.224124 -41.245018 -0.035425 -1.632411 -3.691442 -7.187072 -9.285700 -12.472988 1.276860 -23.404734 -21.218018 -10.959305 4.672776 -0.298921 -41.972584 22.013962 -0.852934 0.067482 -24.962748 -0.312186 16.328491 -13.431406 16.546883 -0.000014 0.000005 -0.000009 -6.588271 17.255136 16.466972 2.609580 -10.899866 -2.656724 -38.367989 -1.267371 -0.042019 -4.008962 0.117580 0.443694 8.583709 -0.079449 -0.425933 -69.888084 -1.090863 0.563364 2.289661 0.096334 -0.025400 11.998324 0.907939 0.077124 -71.713463 3.160880 6.526460 -8.007635 -0.416085 -0.193792 -9.698777 -0.902150 0.102419 -36.974873 3.807847 6.897665 -26.320755 -1.690800 0.351606 -17.057257 -1.945766 -0.623181 -9.033103 -3.498488 -0.238529 -39.128445 -36.743015 9.964622 -0.206695 40.365963 -0.569615 36.673401 -32.283291 -49.034042 -0.000002 0.000009 0.000000 15.290915 -20.222311 0.345788 -8.429414 4.317307 -6.787337 38.367985 1.266719 -0.042513 4.031955 0.164577 -0.042652 -8.579093 -0.272845 -0.413218 69.888077 1.091488 0.563874 -2.289016 0.064667 -0.095187 -11.996755 0.689521 -0.691622 71.713470 -3.160557 6.526506 8.009151 -0.386450 -0.248286 9.686405 -0.858457 -0.636322 36.974815 -3.807770 6.897851 25.867100 -0.890619 -5.307136 16.940668 -1.674219 -2.655575 -6.425170 30.535830 -5.024473 -0.000000 -0.000000 -0.000000 -3.475407 -8.121849 -15.029856 -0.000000 -0.000000 0.000001 -3.919749 25.626690 -1.521734 -0.044550 -0.337988 15.020010 -13.846581 -6.485387 52.261070 0.000000 -0.000001 0.000014
0.749637 9.902053 0.158318 179.999451 -64.171257 -157.654251 -5.929261 10.196115 -41.005459 -0.076532 -1.623451 -3.443977 -7.361899 -9.250127 -13.435019 1.297365 -23.739241 -23.156624 -11.147261 4.351360 -0.303076 -42.618885 20.665710 -0.728352 0.064036 -24.374144 -0.303853 16.450003 -13.256219 15.791934 -0.000010 0.000007 0.000003 -6.588265 17.255129 16.466965 2.609578 -10.899863 -2.656716 -38.367985 -1.267363 -0.042028 -4.008962 0.117581 0.443694 8.583711 -0.079448 -0.425935 -69.888084 -1.090863 0.563364 2.289666 0.096338 -0.025405 11.998322 0.907944 0.077126 -71.713463 3.160884 6.526459 -8.007637 -0.416089 -0.193792 -9.698777 -0.902148 0.102428 -36.974873 3.807854 6.897666 -26.320751 -1.690799 0.351601 -17.057257 -1.945765 -0.623174 -8.852454 -3.167559 -0.232851 -38.160297 -36.399189 9.315424 -0.229060 42.019894 -0.603729 35.332569 -38.900311 -49.152199 0.000005 0.000026 0.000007 15.290920 -20.222311 0.345784 -8.429416 4.317301 -6.787332 38.367992 1.266726 -0.042504 4.031953 0.164579 -0.042654 -8.579091 -0.272840 -0.413215 69.888084 1.091489 0.563884 -2.289013 0.064668 -0.095186 -11.996752 0.689517 -0.691622 71.713478 -3.160557 6.526515 8.009157 -0.386450 -0.248291 9.686399 -0.858466 -0.636325 36.974819 -3.807766 6.897857 25.867098 -0.890616 -5.307136 16.940670 -1.674222 -2.655576 -6.439788 30.633661 -5.069503 0.000000 -0.000000 0.000000 -3.471063 -8.228023 -15.023002 -0.000001 -0.000003 -0.000000 -3.911882 25.621029 -1.954076 -0.049126 -0.354605 15.777056 -13.819296 -6.540628 51.944916 0.000000 -0.000000 0.000004
0.753809 9.902518 0.154823 179.999451 -64.171257 -157.654251 -5.944769 10.174819 -40.779488 -0.109204 -1.616285 -3.211059 -7.396708 -9.316091 -14.334838 1.338553 -24.406082 -25.068083 -11.322325 4.053509 -0.307234 -43.252338 19.464342 -0.608287 0.061514 -23.926712 -0.297569 16.570091 -13.074871 15.018984 -0.000010 -0.000000 -0.000002 -6.588271 17.255136 16.466967 2.609576 -10.899859 -2.656719 -38.367989 -1.267365 -0.042018 -4.008963 0.117584 0.443693 8.583712 -0.079450 -0.425935 -69.888084 -1.090861 0.563371 2.289659 0.096330 -0.025408 11.998324 0.907942 0.077121 -71.713470 3.160883 6.526470 -8.007638 -0.416089 -0.193792 -9.698775 -0.902147 0.102425 -36.974873 3.807847 6.897667 -26.320755 -1.690797 0.351603 -17.057253 -1.945761 -0.623177 -8.660716 -2.779810 -0.227491 -37.089344 -35.795082 8.632513 -0.251745 43.566200 -0.637266 32.205570 -43.085373 -46.984329 -0.000003 -0.000002 0.000003 15.290920 -20.222309 0.345788 -8.429420 4.317303 -6.787335 38.367985 1.266714 -0.042526 4.031951 0.164579 -0.042649 -8.579092 -0.272847 -0.413221 69.888084 1.091488 0.563862 -2.289016 0.064670 -0.095188 -11.996751 0.689517 -0.691620 71.713478 -3.160557 6.526489 8.009153 -0.386450 -0.248286 9.686401 -0.858454 -0.636323 36.974827 -3.807775 6.897840 25.867098 -0.890617 -5.307137 16.940666 -1.674222 -2.655576 -6.451896 30.732304 -5.100437 0.000000 -0.000000 -0.000001 -3.466998 -8.336353 -15.027141 -0.000000 -0.000000 -0.000002 -3.902875 25.612568 -2.262588 -0.052636 -0.366798 16.334759 -13.802742 -6.580207 51.703918 0.000000 -0.000000 -0.000004
0.755963 9.902983 0.151108 179.999451 -64.171257 -157.654251 -5.955121 10.160930 -40.570316 -0.132466 -1.611253 -2.996086 -7.291842 -9.504445 -14.973682 1.394758 -25.304604 -26.488892 -11.550479 3.810036 -0.313185 -43.942593 17.317791 -0.519894 0.047182 -21.172838 -0.259801 16.688437 -12.887929 14.232286 -0.000009 0.000024 0.000000 -6.588268 17.255138 16.466965 2.609575 -10.899864 -2.656714 -37.903221 -1.257774 -0.042339 -3.917784 0.120595 0.440127 8.583713 -0.079454 -0.425935 -69.565948 -1.081061 0.565641 2.289662 0.096336 -0.025402 11.998322 0.907942 0.077117 -70.971313 3.128497 6.482633 -8.007638 -0.416089 -0.193798 -9.698777 -0.902150 0.102423 -36.611469 3.785695 6.840770 -26.068806 -1.677363 0.333531 -16.894131 -1.937163 -0.623641 -8.465222 -2.349043 -0.222636 -35.950512 -34.906975 7.937221 -0.272227 44.863880 -0.666770 26.967720 -44.370930 -42.556465 0.000003 0.000017 -0.000007 15.290914 -20.222311 0.345796 -8.429420 4.317302 -6.787340 37.903225 1.257151 -0.042824 3.983839 0.166095 -0.044676 -8.293477 -0.277355 -0.398658 69.565910 1.081691 0.566159 -2.289015 0.064665 -0.095183 -11.996754 0.689519 -0.691621 71.151268 -3.128733 6.490450 8.208234 -0.390319 -0.257239 9.686401 -0.858464 -0.636324 36.849079 -3.785055 6.866764 25.732792 -0.896282 -5.271887 16.866802 -1.673108 -2.638428 -6.461353 30.831829 -5.116236 0.000000 -0.000000 -0.000000 -3.463219 -8.446852 -15.042344 0.000000 -0.000000 -0.000003 -3.919650 25.312103 7.717636 0.000000 -0.000000 0.000001 -19.292994 -4.956966 68.384377 0.000000 0.000001 -0.000011
